<?xml version="1.0" encoding="UTF-8" standalone="no"?>
<!-- Created with Inkscape (http://www.inkscape.org/) -->

<svg
   xmlns:svg="http://www.w3.org/2000/svg"
   xmlns="http://www.w3.org/2000/svg"
   version="1.1"
   width="558.4895"
   height="577.91626"
   id="svg2">
  <defs
     id="defs4" />
  <g
     transform="translate(-354.1209,-367.42429)"
     id="layer1">
    <path
       d="M 599.65995,631.97118 C 594.81209,642.69523 600.35859,650.34356 592.4341,659.04466 C 584.5096,667.74577 576.37753,662.93639 566.15209,668.76283 C 555.92665,674.58927 555.91829,684.03705 544.39286,686.41849 C 532.86742,688.79993 529.11532,680.12915 517.41807,678.83248 C 505.72083,677.5358 500.16079,685.1743 489.43675,680.32645 C 478.7127,675.47859 480.77374,666.25835 472.07263,658.33385 C 463.37153,650.40935 454.38357,653.32093 448.55713,643.09549 C 442.73069,632.87006 449.81763,626.62218 447.43619,615.09674 C 445.05475,603.5713 436.07196,600.64383 437.36864,588.94658 C 438.66531,577.24933 448.07117,576.36029 452.91903,565.63624 C 457.76689,554.9122 452.22039,547.26386 460.14488,538.56276 C 468.06938,529.86165 476.20145,534.67103 486.42689,528.84459 C 496.65233,523.01815 496.66069,513.57037 508.18612,511.18893 C 519.71156,508.8075 523.46366,517.47827 535.16091,518.77495 C 546.85815,520.07162 552.41819,512.43312 563.14223,517.28098 C 573.86628,522.12883 571.80524,531.34907 580.50635,539.27357 C 589.20745,547.19807 598.19541,544.2865 604.02185,554.51193 C 609.84828,564.73737 602.76135,570.98525 605.14279,582.51068 C 607.52422,594.03612 616.50702,596.9636 615.21034,608.66084 C 613.91367,620.35809 604.50781,621.24713 599.65995,631.97118 z"
       transform="matrix(3.1497751,0.71682662,-0.71682662,3.1497751,-595.08944,-1606.9729)"
       id="path2832"
       style="opacity:0.98947371;fill:#0071a0;fill-opacity:1;stroke:none" />
    <path
       d="M 599.65995,631.97118 C 594.81209,642.69523 600.35859,650.34356 592.4341,659.04466 C 584.5096,667.74577 576.37753,662.93639 566.15209,668.76283 C 555.92665,674.58927 555.91829,684.03705 544.39286,686.41849 C 532.86742,688.79993 529.11532,680.12915 517.41807,678.83248 C 505.72083,677.5358 500.16079,685.1743 489.43675,680.32645 C 478.7127,675.47859 480.77374,666.25835 472.07263,658.33385 C 463.37153,650.40935 454.38357,653.32093 448.55713,643.09549 C 442.73069,632.87006 449.81763,626.62218 447.43619,615.09674 C 445.05475,603.5713 436.07196,600.64383 437.36864,588.94658 C 438.66531,577.24933 448.07117,576.36029 452.91903,565.63624 C 457.76689,554.9122 452.22039,547.26386 460.14488,538.56276 C 468.06938,529.86165 476.20145,534.67103 486.42689,528.84459 C 496.65233,523.01815 496.66069,513.57037 508.18612,511.18893 C 519.71156,508.8075 523.46366,517.47827 535.16091,518.77495 C 546.85815,520.07162 552.41819,512.43312 563.14223,517.28098 C 573.86628,522.12883 571.80524,531.34907 580.50635,539.27357 C 589.20745,547.19807 598.19541,544.2865 604.02185,554.51193 C 609.84828,564.73737 602.76135,570.98525 605.14279,582.51068 C 607.52422,594.03612 616.50702,596.9636 615.21034,608.66084 C 613.91367,620.35809 604.50781,621.24713 599.65995,631.97118 z"
       transform="matrix(2.3025524,1.8489613,-1.8489613,2.3025524,528.72156,-1695.4833)"
       id="path3606"
       style="opacity:0.98947371;fill:#309ed7;fill-opacity:1;stroke:none" />
    <path
       d="M 599.65995,631.97118 C 594.81209,642.69523 600.35859,650.34356 592.4341,659.04466 C 584.5096,667.74577 576.37753,662.93639 566.15209,668.76283 C 555.92665,674.58927 555.91829,684.03705 544.39286,686.41849 C 532.86742,688.79993 529.11532,680.12915 517.41807,678.83248 C 505.72083,677.5358 500.16079,685.1743 489.43675,680.32645 C 478.7127,675.47859 480.77374,666.25835 472.07263,658.33385 C 463.37153,650.40935 454.38357,653.32093 448.55713,643.09549 C 442.73069,632.87006 449.81763,626.62218 447.43619,615.09674 C 445.05475,603.5713 436.07196,600.64383 437.36864,588.94658 C 438.66531,577.24933 448.07117,576.36029 452.91903,565.63624 C 457.76689,554.9122 452.22039,547.26386 460.14488,538.56276 C 468.06938,529.86165 476.20145,534.67103 486.42689,528.84459 C 496.65233,523.01815 496.66069,513.57037 508.18612,511.18893 C 519.71156,508.8075 523.46366,517.47827 535.16091,518.77495 C 546.85815,520.07162 552.41819,512.43312 563.14223,517.28098 C 573.86628,522.12883 571.80524,531.34907 580.50635,539.27357 C 589.20745,547.19807 598.19541,544.2865 604.02185,554.51193 C 609.84828,564.73737 602.76135,570.98525 605.14279,582.51068 C 607.52422,594.03612 616.50702,596.9636 615.21034,608.66084 C 613.91367,620.35809 604.50781,621.24713 599.65995,631.97118 z"
       transform="matrix(1.2993387,2.3287802,-2.3287802,1.2993387,1344.0197,-1347.2789)"
       id="path3608"
       style="opacity:0.98947371;fill:#6ccaf0;fill-opacity:1;stroke:none" />
    <path
       d="M 599.65995,631.97118 C 594.81209,642.69523 600.35859,650.34356 592.4341,659.04466 C 584.5096,667.74577 576.37753,662.93639 566.15209,668.76283 C 555.92665,674.58927 555.91829,684.03705 544.39286,686.41849 C 532.86742,688.79993 529.11532,680.12915 517.41807,678.83248 C 505.72083,677.5358 500.16079,685.1743 489.43675,680.32645 C 478.7127,675.47859 480.77374,666.25835 472.07263,658.33385 C 463.37153,650.40935 454.38357,653.32093 448.55713,643.09549 C 442.73069,632.87006 449.81763,626.62218 447.43619,615.09674 C 445.05475,603.5713 436.07196,600.64383 437.36864,588.94658 C 438.66531,577.24933 448.07117,576.36029 452.91903,565.63624 C 457.76689,554.9122 452.22039,547.26386 460.14488,538.56276 C 468.06938,529.86165 476.20145,534.67103 486.42689,528.84459 C 496.65233,523.01815 496.66069,513.57037 508.18612,511.18893 C 519.71156,508.8075 523.46366,517.47827 535.16091,518.77495 C 546.85815,520.07162 552.41819,512.43312 563.14223,517.28098 C 573.86628,522.12883 571.80524,531.34907 580.50635,539.27357 C 589.20745,547.19807 598.19541,544.2865 604.02185,554.51193 C 609.84828,564.73737 602.76135,570.98525 605.14279,582.51068 C 607.52422,594.03612 616.50702,596.9636 615.21034,608.66084 C 613.91367,620.35809 604.50781,621.24713 599.65995,631.97118 z"
       transform="matrix(1.4012832,1.7362198,-1.7362198,1.4012832,935.53991,-1096.4654)"
       id="path3610"
       style="opacity:0.98947371;fill:#fdfefd;fill-opacity:1;stroke:none" />
    <path
       d="M 599.65995,631.97118 C 594.81209,642.69523 600.35859,650.34356 592.4341,659.04466 C 584.5096,667.74577 576.37753,662.93639 566.15209,668.76283 C 555.92665,674.58927 555.91829,684.03705 544.39286,686.41849 C 532.86742,688.79993 529.11532,680.12915 517.41807,678.83248 C 505.72083,677.5358 500.16079,685.1743 489.43675,680.32645 C 478.7127,675.47859 480.77374,666.25835 472.07263,658.33385 C 463.37153,650.40935 454.38357,653.32093 448.55713,643.09549 C 442.73069,632.87006 449.81763,626.62218 447.43619,615.09674 C 445.05475,603.5713 436.07196,600.64383 437.36864,588.94658 C 438.66531,577.24933 448.07117,576.36029 452.91903,565.63624 C 457.76689,554.9122 452.22039,547.26386 460.14488,538.56276 C 468.06938,529.86165 476.20145,534.67103 486.42689,528.84459 C 496.65233,523.01815 496.66069,513.57037 508.18612,511.18893 C 519.71156,508.8075 523.46366,517.47827 535.16091,518.77495 C 546.85815,520.07162 552.41819,512.43312 563.14223,517.28098 C 573.86628,522.12883 571.80524,531.34907 580.50635,539.27357 C 589.20745,547.19807 598.19541,544.2865 604.02185,554.51193 C 609.84828,564.73737 602.76135,570.98525 605.14279,582.51068 C 607.52422,594.03612 616.50702,596.9636 615.21034,608.66084 C 613.91367,620.35809 604.50781,621.24713 599.65995,631.97118 z"
       transform="matrix(0.52910385,1.82533,-1.82533,0.52910385,1447.9183,-621.09885)"
       id="path3612"
       style="opacity:0.98947371;fill:#fdd95b;fill-opacity:1;stroke:none" />
  </g>
</svg>
